<svg width="800" height="600" viewBox="0 0 800 600" fill="none" xmlns="http://www.w3.org/2000/svg">
  <defs>
    <linearGradient id="bg" x1="0" y1="0" x2="0" y2="600" gradientUnits="userSpaceOnUse">
      <stop offset="0" stop-color="#3B3A38"/>
      <stop offset="0.4" stop-color="#2A2B2D"/>
      <stop offset="1" stop-color="#1F1D1B"/>
    </linearGradient>
    <linearGradient id="letter" x1="300" y1="120" x2="500" y2="510" gradientUnits="userSpaceOnUse">
      <stop offset="0" stop-color="#F4FDFF"/>
      <stop offset="0.18" stop-color="#D9F3FF"/>
      <stop offset="0.55" stop-color="#A6E6FF"/>
      <stop offset="1" stop-color="#7ED0FF"/>
    </linearGradient>
    <filter id="glow" x="-30%" y="-30%" width="160%" height="160%">
      <feGaussianBlur stdDeviation="10" result="blur"/>
      <feMerge>
        <feMergeNode in="blur"/>
        <feMergeNode in="SourceGraphic"/>
      </feMerge>
    </filter>
    <pattern id="brick" width="96" height="48" patternUnits="userSpaceOnUse">
      <rect width="96" height="48" fill="transparent"/>
      <rect x="0" y="0" width="96" height="48" fill="url(#bg)"/>
      <rect x="0" y="0" width="96" height="6" fill="#3C3A39" opacity="0.7"/>
      <rect x="0" y="12" width="96" height="6" fill="#464242" opacity="0.55"/>
      <rect x="0" y="24" width="96" height="6" fill="#383635" opacity="0.48"/>
      <rect x="0" y="36" width="96" height="6" fill="#433F3E" opacity="0.55"/>
      <rect x="0" y="0" width="10" height="48" fill="#342F2B" opacity="0.42"/>
      <rect x="24" y="0" width="10" height="48" fill="#2E2926" opacity="0.35"/>
      <rect x="48" y="0" width="10" height="48" fill="#332F2C" opacity="0.40"/>
      <rect x="72" y="0" width="10" height="48" fill="#2C2928" opacity="0.35"/>
    </pattern>
    <linearGradient id="shadow" x1="400" y1="80" x2="400" y2="510" gradientUnits="userSpaceOnUse">
      <stop offset="0" stop-color="#000000" stop-opacity="0.12"/>
      <stop offset="1" stop-color="#000000" stop-opacity="0.46"/>
    </linearGradient>
  </defs>

  <rect width="800" height="600" fill="url(#brick)"/>
  <rect x="0" y="0" width="800" height="600" fill="url(#bg)" opacity="0.12"/>

  <g opacity="0.4">
    <path d="M0 118H800" stroke="#7DA7B4" stroke-opacity="0.38" stroke-width="2"/>
    <path d="M0 220H800" stroke="#7DA7B4" stroke-opacity="0.22" stroke-width="2"/>
    <path d="M0 382H800" stroke="#7DA7B4" stroke-opacity="0.22" stroke-width="2"/>
  </g>

  <g filter="url(#glow)">
    <path d="M210 500L355 120H445L590 500H496L455 392H344L303 500H210ZM345 325H454L423 252L398 204H343L316 252L345 325Z" fill="url(#letter)"/>
    <path d="M348 210H413L385 272H376L348 210Z" fill="#D8F7FF" opacity="0.8"/>
    <path d="M318 480H481L454 500H345L318 480Z" fill="#CFEFFF" opacity="0.8"/>
  </g>

  <path d="M228 475L366 148H434L572 475" stroke="#0C1921" stroke-opacity="0.7" stroke-width="18" stroke-linecap="round" stroke-linejoin="round"/>
  <path d="M280 296H520" stroke="#0B1A1F" stroke-opacity="0.55" stroke-width="20" stroke-linecap="round"/>
  <path d="M338 150L400 175L462 150" stroke="#6CC7F2" stroke-opacity="0.65" stroke-width="10" stroke-linecap="round" stroke-linejoin="round"/>

  <ellipse cx="400" cy="520" rx="210" ry="28" fill="url(#shadow)"/>
</svg>
